<svg xmlns="http://www.w3.org/2000/svg" xmlns:xlink="http://www.w3.org/1999/xlink" viewBox="0 0 360.06 360.06"><defs><style>.cls-1{isolation:isolate;}.cls-2{fill:url(#New_Gradient_Swatch_1);}.cls-3{fill:#231f20;mix-blend-mode:multiply;opacity:0.5;}.cls-4{fill:#e9eaec;}.cls-5{fill:none;stroke:#fff;stroke-linecap:round;stroke-miterlimit:10;stroke-width:10px;}.cls-6{fill:#fff;}</style><linearGradient id="New_Gradient_Swatch_1" x1="382.18" y1="-86.17" x2="53.38" y2="346.81" gradientUnits="userSpaceOnUse"><stop offset="0" stop-color="#f15a26"/><stop offset="1" stop-color="#ed2024"/></linearGradient></defs><g class="cls-1"><g id="Layer_2" data-name="Layer 2"><g id="design"><rect class="cls-2" width="360.06" height="360.06" rx="72.56"/><circle class="cls-3" cx="109.1" cy="43.39" r="11.65"/><circle class="cls-3" cx="241.7" cy="43.39" r="11.65"/><path class="cls-4" d="M101.41,253.67a6.6,6.6,0,0,0-4.88-2H85.15v-6.07a6.68,6.68,0,0,0-2-4.89,6.6,6.6,0,0,0-4.89-2H66.63a6.64,6.64,0,0,0-4.91,2,6.71,6.71,0,0,0-2,4.89v6.07H48.34a6.93,6.93,0,0,0-6.93,6.93v32.7a6.88,6.88,0,0,0,6.93,6.91H96.53a6.9,6.9,0,0,0,6.91-6.91v-32.7A6.6,6.6,0,0,0,101.41,253.67Zm-23.18-2H66.63v-6.07h11.6Z"/><path class="cls-4" d="M131.32,270.71,128.94,272a3.33,3.33,0,0,1-2.39.22,3,3,0,0,1-1.93-1.48L118.53,260a3.2,3.2,0,0,1-.33-2.49,3,3,0,0,1,1.51-2l17.15-9.81h5.36a1.88,1.88,0,0,1,1.95,1.94v1.57a5.24,5.24,0,1,0,10.47,0v-1.57a1.88,1.88,0,0,1,2-1.94H162l17.15,9.81a3.09,3.09,0,0,1,1.52,2,3.25,3.25,0,0,1-.34,2.49l-6.09,10.78a2.91,2.91,0,0,1-1.88,1.44,3.62,3.62,0,0,1-2.44-.23l-2.38-1.2v25.08a3.32,3.32,0,0,1-1,2.48,3.44,3.44,0,0,1-2.5,1H134.83a3.5,3.5,0,0,1-3.51-3.51Z"/><path class="cls-4" d="M253.49,269.2a6.67,6.67,0,0,0-.29-1.19l-6-16.88a7.31,7.31,0,0,0-6.88-4.9H207.83a7.31,7.31,0,0,0-6.9,4.9L195,268a6.64,6.64,0,0,0-.27,1.19,7.48,7.48,0,0,0-.1,1.26v23.16a5.17,5.17,0,1,0,10.33,0v-1.27h38.33v1.23a5.16,5.16,0,1,0,10.31,0v-23.2A10.39,10.39,0,0,0,253.49,269.2Zm-40.31,11.41a4.56,4.56,0,0,1-3.39,1.41,4.81,4.81,0,0,1-4.81-4.81,4.57,4.57,0,0,1,1.41-3.4,4.62,4.62,0,0,1,3.4-1.4,4.8,4.8,0,0,1,4.8,4.8A4.61,4.61,0,0,1,213.18,280.61Zm28.62,0a4.82,4.82,0,0,1-8.22-3.4,4.57,4.57,0,0,1,1.41-3.4,4.81,4.81,0,0,1,6.81,6.8Zm-37.31-17.7,3.27-9.37h32.65l3.27,9.37Z"/><path class="cls-4" d="M270.19,290.83V261a7.56,7.56,0,0,1,.81-3.43,7.28,7.28,0,0,1,2.24-2.68l19.92-14.94a7.61,7.61,0,0,1,9.18,0l19.92,14.94a7.28,7.28,0,0,1,2.24,2.68,7.56,7.56,0,0,1,.81,3.43v29.88a7.65,7.65,0,0,1-7.65,7.64h-9.21a3.79,3.79,0,0,1-3.82-3.82V277.93a3.79,3.79,0,0,0-3.82-3.82h-6.12a3.79,3.79,0,0,0-3.82,3.82v16.72a3.79,3.79,0,0,1-3.82,3.82h-9.21a7.65,7.65,0,0,1-7.65-7.64Z"/><path class="cls-5" d="M241.7,43.39a66.3,66.3,0,1,1-132.6,0"/><path class="cls-6" d="M30.45,148.91v12.32H49v45h14v-45H81.61V148.91Z"/><path class="cls-6" d="M85.06,148.91v12.32h18.56v45h14v-45h18.56V148.91Z"/><path class="cls-6" d="M157,162.17c-13,0-23.78,9.06-23.78,22.57S144,207.42,157,207.42c12.74,0,23.52-9.07,23.52-22.68S169.76,162.17,157,162.17Zm0,33.69c-5.56,0-10.6-4.36-10.6-11.12A10.72,10.72,0,0,1,157,173.62c5.3,0,10.35,4.45,10.35,11.12S162.32,195.86,157,195.86Z"/><path class="cls-6" d="M203.15,163.27v-2.73c0-3.42,2.31-5.38,5.56-5.38a12.68,12.68,0,0,1,3.68.67l2.91-10.6a21.06,21.06,0,0,0-8.47-1.8c-10.35,0-17.28,6.43-17.28,16.51v3.33h-6.16v10.87h6.16v32.07h13.6V174.14H215V163.27Z"/><path class="cls-6" d="M234.05,160.54c0-3.42,2.31-5.38,5.56-5.38a12.73,12.73,0,0,1,3.68.67l2.9-10.6a21,21,0,0,0-8.46-1.8c-10.35,0-17.28,6.43-17.28,16.51v3.33h-6.16v10.87h6.16v32.07h13.6V174.14h11.8V163.27h-11.8Z"/><path class="cls-6" d="M292.31,184.74c-.25-14-10-22.75-22.15-22.75-12.49,0-22.75,9.24-22.75,22.75s10.26,22.75,22.67,22.75c9.83,0,17.62-4.36,21.29-13.43l-12.14-2.46c-2.31,4.19-6,4.94-9.15,4.94-4.62,0-8.13-3.16-9.24-8.29h31.47Zm-31.22-4.88a9.41,9.41,0,0,1,9.07-6.75,8.58,8.58,0,0,1,8.64,6.75Z"/><path class="cls-6" d="M327.93,162.67c-7,0-11.72,3.69-14.8,8.81v-8.21H299.44v42.94h13.69V192.79c0-11.12,5.22-16.09,14.8-16.09h2.48L331,163A11.5,11.5,0,0,0,327.93,162.67Z"/></g></g></g></svg>