<svg width="334" height="138" viewBox="0 0 334 138" fill="none" xmlns="http://www.w3.org/2000/svg">
<path d="M86.7433 138L315.5 138C323.985 138 328.228 138 330.864 135.364C333.5 132.728 333.5 128.485 333.5 120L333.5 18C333.5 9.51472 333.5 5.27208 330.864 2.63603C328.228 4.609e-07 323.985 8.31803e-07 315.5 1.57361e-06L86.1541 2.16237e-05C76.7046 2.24498e-05 71.9798 2.28628e-05 67.7358 1.76719C63.4918 3.53436 60.1634 6.88766 53.5065 13.5943L12.3159 55.0922C6.49581 60.9557 3.58575 63.8875 3.54608 67.5386C3.5064 71.1896 6.35208 74.1839 12.0434 80.1726L53.3992 123.689C60.1038 130.744 63.4561 134.271 67.8002 136.136C72.1443 138 77.0106 138 86.7433 138Z" fill="#FFA700"/>
<ellipse cx="5.98695" cy="6" rx="5.98695" ry="6" transform="matrix(1 -8.74228e-08 -8.74228e-08 -1 39.5 75)" fill="white"/>
</svg>
